{
    "asset" : {
        "generator" : "Khronos glTF Blender I/O v1.5.17",
        "version" : "2.0"
    },
    "scene" : 0,
    "scenes" : [
        {
            "name" : "Scene",
            "nodes" : [
                0,
                3
            ]
        }
    ],
    "nodes" : [
        {
            "mesh" : 0,
            "name" : "Suzanne"
        },
        {
            "camera" : 0,
            "name" : "Camera_Orientation_Orientation",
            "rotation" : [
                -0.7071067690849304,
                0,
                0,
                0.7071067690849304
            ]
        },
        {
            "children" : [
                1
            ],
            "name" : "Camera_Orientation"
        },
        {
            "children" : [
                2
            ],
            "name" : "Camera",
            "rotation" : [
                -0.06788654625415802,
                -0.9211907386779785,
                0.3343966603279114,
                -0.18702374398708344
            ],
            "translation" : [
                1.1293278932571411,
                3.5752358436584473,
                -2.6400558948516846
            ]
        }
    ],
    "cameras" : [
        {
            "name" : "Camera.001",
            "perspective" : {
                "aspectRatio" : 1.7777777777777777,
                "yfov" : 0.8726646304130554,
                "zfar" : 1000,
                "znear" : 0.10000000149011612
            },
            "type" : "perspective"
        }
    ],
    "materials" : [
        {
            "doubleSided" : true,
            "emissiveFactor" : [
                0.13052943162620068,
                0.07061612792313099,
                0.12006214819848537
            ],
            "name" : "Material",
            "pbrMetallicRoughness" : {
                "baseColorFactor" : [
                    0.8000000715255737,
                    0.07965313643217087,
                    0.0681721419095993,
                    1
                ],
                "metallicFactor" : 0,
                "roughnessFactor" : 0.4000000059604645
            }
        }
    ],
    "meshes" : [
        {
            "name" : "Suzanne",
            "primitives" : [
                {
                    "attributes" : {
                        "POSITION" : 0,
                        "NORMAL" : 1,
                        "TEXCOORD_0" : 2
                    },
                    "indices" : 3,
                    "material" : 0
                }
            ]
        }
    ],
    "accessors" : [
        {
            "bufferView" : 0,
            "componentType" : 5126,
            "count" : 35961,
            "max" : [
                1.3287925720214844,
                0.9392361640930176,
                0.8226352334022522
            ],
            "min" : [
                -1.328792691230774,
                -0.971822202205658,
                -0.7782661318778992
            ],
            "type" : "VEC3"
        },
        {
            "bufferView" : 1,
            "componentType" : 5126,
            "count" : 35961,
            "type" : "VEC3"
        },
        {
            "bufferView" : 2,
            "componentType" : 5126,
            "count" : 35961,
            "type" : "VEC2"
        },
        {
            "bufferView" : 3,
            "componentType" : 5123,
            "count" : 188928,
            "type" : "SCALAR"
        }
    ],
    "bufferViews" : [
        {
            "buffer" : 0,
            "byteLength" : 431532,
            "byteOffset" : 0
        },
        {
            "buffer" : 0,
            "byteLength" : 431532,
            "byteOffset" : 431532
        },
        {
            "buffer" : 0,
            "byteLength" : 287688,
            "byteOffset" : 863064
        },
        {
            "buffer" : 0,
            "byteLength" : 377856,
            "byteOffset" : 1150752
        }
    ],
    "buffers" : [
        {
            "byteLength" : 1528608,
            "uri" : "suzanne.bin"
        }
    ]
}
