{
    "asset" : {
        "generator" : "Khronos glTF Blender I/O v1.5.17",
        "version" : "2.0"
    },
    "scene" : 0,
    "scenes" : [
        {
            "name" : "Scene",
            "nodes" : [
                0
            ]
        }
    ],
    "nodes" : [
        {
            "mesh" : 0,
            "name" : "Suzanne",
            "rotation" : [
                0.25,
                0.2500000298023224,
                0.06698726862668991,
                0.9330127239227295
            ]
        }
    ],
    "meshes" : [
        {
            "name" : "Suzanne",
            "primitives" : [
                {
                    "attributes" : {
                        "POSITION" : 0,
                        "NORMAL" : 1,
                        "TEXCOORD_0" : 2
                    },
                    "indices" : 3
                }
            ]
        }
    ],
    "accessors" : [
        {
            "bufferView" : 0,
            "componentType" : 5126,
            "count" : 188928,
            "max" : [
                1.3287925720214844,
                0.9392361640930176,
                0.8226352334022522
            ],
            "min" : [
                -1.328792691230774,
                -0.971822202205658,
                -0.7782661318778992
            ],
            "type" : "VEC3"
        },
        {
            "bufferView" : 1,
            "componentType" : 5126,
            "count" : 188928,
            "type" : "VEC3"
        },
        {
            "bufferView" : 2,
            "componentType" : 5126,
            "count" : 188928,
            "type" : "VEC2"
        },
        {
            "bufferView" : 3,
            "componentType" : 5125,
            "count" : 188928,
            "type" : "SCALAR"
        }
    ],
    "bufferViews" : [
        {
            "buffer" : 0,
            "byteLength" : 2267136,
            "byteOffset" : 0
        },
        {
            "buffer" : 0,
            "byteLength" : 2267136,
            "byteOffset" : 2267136
        },
        {
            "buffer" : 0,
            "byteLength" : 1511424,
            "byteOffset" : 4534272
        },
        {
            "buffer" : 0,
            "byteLength" : 755712,
            "byteOffset" : 6045696
        }
    ],
    "buffers" : [
        {
            "byteLength" : 6801408,
            "uri" : "suzanne.bin"
        }
    ]
}
