{
    "asset" : {
        "generator" : "Khronos glTF Blender I/O v1.5.17",
        "version" : "2.0"
    },
    "scene" : 0,
    "scenes" : [
        {
            "name" : "Scene",
            "nodes" : [
                0,
                2,
                3
            ]
        }
    ],
    "nodes" : [
        {
            "mesh" : 0,
            "name" : "dragon_vrip",
            "translation" : [
                0.12243225425481796,
                -0.5392895340919495,
                0
            ]
        },
        {
            "camera" : 0,
            "name" : "Camera.001_Orientation",
            "rotation" : [
                -0.7071067690849304,
                0,
                0,
                0.7071067690849304
            ]
        },
        {
            "children" : [
                1
            ],
            "name" : "Camera.001",
            "rotation" : [
                0.5150313377380371,
                -0.17998015880584717,
                0.1116003468632698,
                0.830599308013916
            ],
            "translation" : [
                -1.7778713703155518,
                2.1561295986175537,
                3.4369661808013916
            ]
        },
        {
            "mesh" : 1,
            "name" : "Plane",
            "scale" : [
                1.4271879196166992,
                1.4271879196166992,
                1.4271879196166992
            ],
            "translation" : [
                0,
                -0.5246402025222778,
                -0.20528283715248108
            ]
        }
    ],
    "cameras" : [
        {
            "name" : "Camera.001",
            "perspective" : {
                "aspectRatio" : 1.7777777777777777,
                "yfov" : 0.513038796505747,
                "zfar" : 1000,
                "znear" : 0.10000000149011612
            },
            "type" : "perspective"
        }
    ],
    "materials" : [
        {
            "doubleSided" : true,
            "name" : "dragon",
            "pbrMetallicRoughness" : {
                "baseColorFactor" : [
                    0.800000011920929,
                    0.800000011920929,
                    0.800000011920929,
                    1
                ],
                "roughnessFactor" : 0.30000001192092896
            }
        },
        {
            "doubleSided" : true,
            "name" : "Material",
            "pbrMetallicRoughness" : {
                "baseColorFactor" : [
                    1,
                    0.03251737356185913,
                    0.03251737356185913,
                    1
                ],
                "metallicFactor" : 0,
                "roughnessFactor" : 0.800000011920929
            }
        }
    ],
    "meshes" : [
        {
            "name" : "dragon_vrip",
            "primitives" : [
                {
                    "attributes" : {
                        "POSITION" : 0,
                        "NORMAL" : 1,
                        "TEXCOORD_0" : 2
                    },
                    "indices" : 3,
                    "material" : 0
                }
            ]
        },
        {
            "name" : "Plane",
            "primitives" : [
                {
                    "attributes" : {
                        "POSITION" : 4,
                        "NORMAL" : 5,
                        "TEXCOORD_0" : 6
                    },
                    "indices" : 7,
                    "material" : 1
                }
            ]
        }
    ],
    "accessors" : [
        {
            "bufferView" : 0,
            "componentType" : 5126,
            "count" : 521102,
            "max" : [
                1.1648892164230347,
                1.7329264879226685,
                0.4970908463001251
            ],
            "min" : [
                -1.3067249059677124,
                -0.009512192569673061,
                -0.6081534624099731
            ],
            "type" : "VEC3"
        },
        {
            "bufferView" : 1,
            "componentType" : 5126,
            "count" : 521102,
            "type" : "VEC3"
        },
        {
            "bufferView" : 2,
            "componentType" : 5126,
            "count" : 521102,
            "type" : "VEC2"
        },
        {
            "bufferView" : 3,
            "componentType" : 5125,
            "count" : 2614242,
            "type" : "SCALAR"
        },
        {
            "bufferView" : 4,
            "componentType" : 5126,
            "count" : 4,
            "max" : [
                1,
                0,
                1
            ],
            "min" : [
                -1,
                0,
                -1
            ],
            "type" : "VEC3"
        },
        {
            "bufferView" : 5,
            "componentType" : 5126,
            "count" : 4,
            "type" : "VEC3"
        },
        {
            "bufferView" : 6,
            "componentType" : 5126,
            "count" : 4,
            "type" : "VEC2"
        },
        {
            "bufferView" : 7,
            "componentType" : 5123,
            "count" : 6,
            "type" : "SCALAR"
        }
    ],
    "bufferViews" : [
        {
            "buffer" : 0,
            "byteLength" : 6253224,
            "byteOffset" : 0
        },
        {
            "buffer" : 0,
            "byteLength" : 6253224,
            "byteOffset" : 6253224
        },
        {
            "buffer" : 0,
            "byteLength" : 4168816,
            "byteOffset" : 12506448
        },
        {
            "buffer" : 0,
            "byteLength" : 10456968,
            "byteOffset" : 16675264
        },
        {
            "buffer" : 0,
            "byteLength" : 48,
            "byteOffset" : 27132232
        },
        {
            "buffer" : 0,
            "byteLength" : 48,
            "byteOffset" : 27132280
        },
        {
            "buffer" : 0,
            "byteLength" : 32,
            "byteOffset" : 27132328
        },
        {
            "buffer" : 0,
            "byteLength" : 12,
            "byteOffset" : 27132360
        }
    ],
    "buffers" : [
        {
            "byteLength" : 27132372,
            "uri" : "dragon.bin"
        }
    ]
}
