{
    "asset" : {
        "generator" : "Khronos glTF Blender I/O v1.5.17",
        "version" : "2.0"
    },
    "scene" : 0,
    "scenes" : [
        {
            "name" : "Scene",
            "nodes" : [
                0,
                3
            ]
        }
    ],
    "nodes" : [
        {
            "mesh" : 0,
            "name" : "dragon_vrip",
            "translation" : [
                0.12243225425481796,
                -0.5392895340919495,
                0
            ]
        },
        {
            "camera" : 0,
            "name" : "Camera_Orientation_Orientation",
            "rotation" : [
                -0.7071067690849304,
                0,
                0,
                0.7071067690849304
            ]
        },
        {
            "children" : [
                1
            ],
            "name" : "Camera_Orientation"
        },
        {
            "children" : [
                2
            ],
            "name" : "Camera",
            "rotation" : [
                0.5252557992935181,
                -0.18281866610050201,
                0.11669106781482697,
                0.8228407502174377
            ],
            "translation" : [
                -1.4709463119506836,
                1.8152508735656738,
                2.7803375720977783
            ]
        }
    ],
    "cameras" : [
        {
            "name" : "Camera.003",
            "perspective" : {
                "aspectRatio" : 1.7777777777777777,
                "yfov" : 0.6911112070083618,
                "zfar" : 1000,
                "znear" : 0.10000000149011612
            },
            "type" : "perspective"
        }
    ],
    "materials" : [
        {
            "doubleSided" : true,
            "name" : "dragon",
            "pbrMetallicRoughness" : {
                "baseColorTexture" : {
                    "index" : 0
                },
                "metallicFactor" : 0,
                "roughnessFactor" : 0.4000000059604645
            }
        }
    ],
    "meshes" : [
        {
            "name" : "dragon_vrip",
            "primitives" : [
                {
                    "attributes" : {
                        "POSITION" : 0,
                        "NORMAL" : 1,
                        "TEXCOORD_0" : 2
                    },
                    "indices" : 3,
                    "material" : 0
                }
            ]
        }
    ],
    "textures" : [
        {
            "sampler" : 0,
            "source" : 0
        }
    ],
    "images" : [
        {
            "mimeType" : "image/png",
            "name" : "texture",
            "uri" : "textures/texture.png"
        }
    ],
    "accessors" : [
        {
            "bufferView" : 0,
            "componentType" : 5126,
            "count" : 521102,
            "max" : [
                1.1648892164230347,
                1.7329264879226685,
                0.4970908463001251
            ],
            "min" : [
                -1.3067249059677124,
                -0.009512192569673061,
                -0.6081534624099731
            ],
            "type" : "VEC3"
        },
        {
            "bufferView" : 1,
            "componentType" : 5126,
            "count" : 521102,
            "type" : "VEC3"
        },
        {
            "bufferView" : 2,
            "componentType" : 5126,
            "count" : 521102,
            "type" : "VEC2"
        },
        {
            "bufferView" : 3,
            "componentType" : 5125,
            "count" : 2614242,
            "type" : "SCALAR"
        }
    ],
    "bufferViews" : [
        {
            "buffer" : 0,
            "byteLength" : 6253224,
            "byteOffset" : 0
        },
        {
            "buffer" : 0,
            "byteLength" : 6253224,
            "byteOffset" : 6253224
        },
        {
            "buffer" : 0,
            "byteLength" : 4168816,
            "byteOffset" : 12506448
        },
        {
            "buffer" : 0,
            "byteLength" : 10456968,
            "byteOffset" : 16675264
        }
    ],
    "samplers" : [
        {
            "magFilter" : 9729,
            "minFilter" : 9987
        }
    ],
    "buffers" : [
        {
            "byteLength" : 27132232,
            "uri" : "dragon.bin"
        }
    ]
}
