{
    "asset" : {
        "generator" : "Khronos glTF Blender I/O v3.3.32",
        "version" : "2.0"
    },
    "scene" : 0,
    "scenes" : [
        {
            "name" : "Scene",
            "nodes" : [
                0,
                1
            ]
        }
    ],
    "nodes" : [
        {
            "mesh" : 0,
            "name" : "dragon_vrip",
            "translation" : [
                0.12243225425481796,
                -0.5392895340919495,
                0
            ]
        },
        {
            "camera" : 0,
            "name" : "Camera",
            "rotation" : [
                -0.2198522537946701,
                -0.21418525278568268,
                -0.05620986968278885,
                0.950068473815918
            ],
            "translation" : [
                -1.644078016281128,
                2.0029208660125732,
                3.1533069610595703
            ]
        }
    ],
    "cameras" : [
        {
            "name" : "Camera.001",
            "perspective" : {
                "aspectRatio" : 1,
                "yfov" : 0.6108652353286743,
                "zfar" : 1000,
                "znear" : 0.10000000149011612
            },
            "type" : "perspective"
        }
    ],
    "materials" : [
        {
            "doubleSided" : true,
            "name" : "dragon",
            "pbrMetallicRoughness" : {
                "baseColorFactor" : [
                    0.8000000715255737,
                    0.41419506072998047,
                    0.16755585372447968,
                    1
                ],
                "roughnessFactor" : 0.30000001192092896
            }
        }
    ],
    "meshes" : [
        {
            "name" : "dragon_vrip",
            "primitives" : [
                {
                    "attributes" : {
                        "POSITION" : 0,
                        "NORMAL" : 1,
                        "TEXCOORD_0" : 2
                    },
                    "indices" : 3,
                    "material" : 0
                }
            ]
        }
    ],
    "accessors" : [
        {
            "bufferView" : 0,
            "componentType" : 5126,
            "count" : 521102,
            "max" : [
                1.1648892164230347,
                1.7329264879226685,
                0.4970908463001251
            ],
            "min" : [
                -1.3067249059677124,
                -0.009512192569673061,
                -0.6081534624099731
            ],
            "type" : "VEC3"
        },
        {
            "bufferView" : 1,
            "componentType" : 5126,
            "count" : 521102,
            "type" : "VEC3"
        },
        {
            "bufferView" : 2,
            "componentType" : 5126,
            "count" : 521102,
            "type" : "VEC2"
        },
        {
            "bufferView" : 3,
            "componentType" : 5125,
            "count" : 2614242,
            "type" : "SCALAR"
        }
    ],
    "bufferViews" : [
        {
            "buffer" : 0,
            "byteLength" : 6253224,
            "byteOffset" : 0,
            "target" : 34962
        },
        {
            "buffer" : 0,
            "byteLength" : 6253224,
            "byteOffset" : 6253224,
            "target" : 34962
        },
        {
            "buffer" : 0,
            "byteLength" : 4168816,
            "byteOffset" : 12506448,
            "target" : 34962
        },
        {
            "buffer" : 0,
            "byteLength" : 10456968,
            "byteOffset" : 16675264,
            "target" : 34963
        }
    ],
    "buffers" : [
        {
            "byteLength" : 27132232,
            "uri" : "dragon.bin"
        }
    ]
}
